<?xml version="1.0" encoding="UTF-8"?>
<svg width="120px" height="120px" viewBox="0 0 120 120" xmlns="http://www.w3.org/2000/svg" xmlns:xlink="http://www.w3.org/1999/xlink" version="1.1">
 <!-- Generated by Pixelmator Pro 2.2 -->
 <g id="group">
  <g id="group-1">
   <path id="Path" d="M98.823 -84.889 C73.39 -91.704 46.61 -91.704 21.177 -84.889 L60 60 Z" fill="#ff0000" fill-opacity="1" stroke="none"/>
  </g>
  <g id="group-2">
   <path id="Path-1" d="M166.066 -46.066 C147.448 -64.684 124.256 -78.074 98.823 -84.889 L60 60 Z" fill="#bf0041" fill-opacity="1" stroke="none"/>
  </g>
  <g id="group-3">
   <path id="Path-2" d="M204.889 21.177 C198.074 -4.256 184.685 -27.448 166.066 -46.066 L60 60 Z" fill="#800080" fill-opacity="1" stroke="none"/>
  </g>
  <g id="group-4">
   <path id="Path-3" d="M204.889 98.823 C211.704 73.39 211.704 46.61 204.889 21.177 L60 60 Z" fill="#55308d" fill-opacity="1" stroke="none"/>
  </g>
  <g id="group-5">
   <path id="Path-4" d="M166.066 166.066 C184.684 147.448 198.074 124.256 204.889 98.823 L60 60 Z" fill="#2a6099" fill-opacity="1" stroke="none"/>
  </g>
  <g id="group-6">
   <path id="Path-5" d="M98.823 204.889 C124.256 198.074 147.448 184.685 166.066 166.066 L60 60 Z" fill="#158466" fill-opacity="1" stroke="none"/>
  </g>
  <g id="group-7">
   <path id="Path-6" d="M21.177 204.889 C46.61 211.704 73.39 211.704 98.823 204.889 L60 60 Z" fill="#00a933" fill-opacity="1" stroke="none"/>
  </g>
  <g id="group-8">
   <path id="Path-7" d="M-46.066 166.066 C-27.448 184.684 -4.256 198.074 21.177 204.889 L60 60 Z" fill="#81d41a" fill-opacity="1" stroke="none"/>
  </g>
  <g id="group-9">
   <path id="Path-8" d="M-84.889 98.823 C-78.074 124.256 -64.685 147.448 -46.066 166.066 L60 60 Z" fill="#ffff00" fill-opacity="1" stroke="none"/>
  </g>
  <g id="group-10">
   <path id="Path-9" d="M-84.889 21.177 C-91.704 46.61 -91.704 73.39 -84.889 98.823 L60 60 Z" fill="#ffbf00" fill-opacity="1" stroke="none"/>
  </g>
  <g id="group-11">
   <path id="Path-10" d="M-46.066 -46.066 C-64.684 -27.448 -78.074 -4.256 -84.889 21.177 L60 60 Z" fill="#ff8000" fill-opacity="1" stroke="none"/>
  </g>
  <g id="group-12">
   <path id="Path-11" d="M21.177 -84.889 C-4.256 -78.074 -27.448 -64.685 -46.066 -46.066 L60 60 Z" fill="#ff4000" fill-opacity="1" stroke="none"/>
  </g>
  <path id="Path-12" d="M180 60 C180 126.274 126.274 180 60 180 -6.274 180 -60 126.274 -60 60 -60 -6.274 -6.274 -60 60 -60 126.274 -60 180 -6.274 180 60 Z" fill="#000000" fill-opacity="1" stroke="none"/>
 </g>
 <g id="group-13">
  <path id="Path-13" d="M60 60 L60 -60" fill="#ff0000" fill-opacity="1" stroke="#ff0000" stroke-width="30" stroke-opacity="1" stroke-linejoin="round" stroke-linecap="round"/>
  <path id="Path-14" d="M60 60 L163.923 0" fill="#800080" fill-opacity="1" stroke="#800080" stroke-width="30" stroke-opacity="1" stroke-linejoin="round" stroke-linecap="round"/>
  <path id="Path-15" d="M60 60 L163.923 120" fill="#2a6099" fill-opacity="1" stroke="#2a6099" stroke-width="30" stroke-opacity="1" stroke-linejoin="round" stroke-linecap="round"/>
  <path id="Path-16" d="M60 60 L120 163.923" fill="#158466" fill-opacity="1" stroke="#158466" stroke-width="30" stroke-opacity="1" stroke-linejoin="round" stroke-linecap="round"/>
  <path id="Path-17" d="M60 60 L0 163.923" fill="#81d41a" fill-opacity="1" stroke="#81d41a" stroke-width="30" stroke-opacity="1" stroke-linejoin="round" stroke-linecap="round"/>
  <path id="Path-18" d="M60 60 L-60 60" fill="#ffbf00" fill-opacity="1" stroke="#ffbf00" stroke-width="30" stroke-opacity="1" stroke-linejoin="round" stroke-linecap="round"/>
  <path id="Path-19" d="M60 60 L0 -43.923" fill="#ff4000" fill-opacity="1" stroke="#ff4000" stroke-width="30" stroke-opacity="1" stroke-linejoin="round" stroke-linecap="round"/>
 </g>
</svg>
