<svg width="300" height="300">
<defs>
<mask id="rim-clip">
<circle cx="150" cy="150" r="150" fill="white">
</circle>
<circle cx="150" cy="150" r="120" fill="black">
</circle>
</mask>
</defs>
<g mask="url(#rim-clip)" transform="rotate(0, 150, 150)">
<g transform="rotate(0, 150, 150)" fill="#ff0000" stroke="#ff0000">
<path d="M 188.8228567653781 5.111126056639762 A 150 150 0 0 0 111.17714323462187 5.111126056639762 L 150, 150 L 188.8228567653781, 5.111126056639762" stroke-width="0" stroke="none">
</path>
</g>
<g transform="rotate(30, 150, 150)" fill="#bf0041" stroke="#bf0041">
<path d="M 188.8228567653781 5.111126056639762 A 150 150 0 0 0 111.17714323462187 5.111126056639762 L 150, 150 L 188.8228567653781, 5.111126056639762" stroke-width="0" stroke="none">
</path>
</g>
<g transform="rotate(60, 150, 150)" fill="#800080" stroke="#800080">
<path d="M 188.8228567653781 5.111126056639762 A 150 150 0 0 0 111.17714323462187 5.111126056639762 L 150, 150 L 188.8228567653781, 5.111126056639762" stroke-width="0" stroke="none">
</path>
</g>
<g transform="rotate(90, 150, 150)" fill="#55308d" stroke="#55308d">
<path d="M 188.8228567653781 5.111126056639762 A 150 150 0 0 0 111.17714323462187 5.111126056639762 L 150, 150 L 188.8228567653781, 5.111126056639762" stroke-width="0" stroke="none">
</path>
</g>
<g transform="rotate(120, 150, 150)" fill="#2a6099" stroke="#2a6099">
<path d="M 188.8228567653781 5.111126056639762 A 150 150 0 0 0 111.17714323462187 5.111126056639762 L 150, 150 L 188.8228567653781, 5.111126056639762" stroke-width="0" stroke="none">
</path>
</g>
<g transform="rotate(150, 150, 150)" fill="#158466" stroke="#158466">
<path d="M 188.8228567653781 5.111126056639762 A 150 150 0 0 0 111.17714323462187 5.111126056639762 L 150, 150 L 188.8228567653781, 5.111126056639762" stroke-width="0" stroke="none">
</path>
</g>
<g transform="rotate(180, 150, 150)" fill="#00a933" stroke="#00a933">
<path d="M 188.8228567653781 5.111126056639762 A 150 150 0 0 0 111.17714323462187 5.111126056639762 L 150, 150 L 188.8228567653781, 5.111126056639762" stroke-width="0" stroke="none">
</path>
</g>
<g transform="rotate(210, 150, 150)" fill="#81d41a" stroke="#81d41a">
<path d="M 188.8228567653781 5.111126056639762 A 150 150 0 0 0 111.17714323462187 5.111126056639762 L 150, 150 L 188.8228567653781, 5.111126056639762" stroke-width="0" stroke="none">
</path>
</g>
<g transform="rotate(240, 150, 150)" fill="#ffff00" stroke="#ffff00">
<path d="M 188.8228567653781 5.111126056639762 A 150 150 0 0 0 111.17714323462187 5.111126056639762 L 150, 150 L 188.8228567653781, 5.111126056639762" stroke-width="0" stroke="none">
</path>
</g>
<g transform="rotate(270, 150, 150)" fill="#ffbf00" stroke="#ffbf00">
<path d="M 188.8228567653781 5.111126056639762 A 150 150 0 0 0 111.17714323462187 5.111126056639762 L 150, 150 L 188.8228567653781, 5.111126056639762" stroke-width="0" stroke="none">
</path>
</g>
<g transform="rotate(300, 150, 150)" fill="#ff8000" stroke="#ff8000">
<path d="M 188.8228567653781 5.111126056639762 A 150 150 0 0 0 111.17714323462187 5.111126056639762 L 150, 150 L 188.8228567653781, 5.111126056639762" stroke-width="0" stroke="none">
</path>
</g>
<g transform="rotate(330, 150, 150)" fill="#ff4000" stroke="#ff4000">
<path d="M 188.8228567653781 5.111126056639762 A 150 150 0 0 0 111.17714323462187 5.111126056639762 L 150, 150 L 188.8228567653781, 5.111126056639762" stroke-width="0" stroke="none">
</path>
</g>
<circle cx="150" cy="150" r="120">
</circle>
</g>
<g>
<line x1="150" y1="150" x2="150" y2="30" stroke="#ff0000" fill="#ff0000" stroke-width="30" stroke-linecap="round" opacity="0.6">
</line>
<line x1="150" y1="150" x2="253.92304845413264" y2="90" stroke="#800080" fill="#800080" stroke-width="30" stroke-linecap="round" opacity="0.6">
</line>
<line x1="150" y1="150" x2="253.92304845413264" y2="210" stroke="#2a6099" fill="#2a6099" stroke-width="30" stroke-linecap="round" opacity="0.6">
</line>
<line x1="150" y1="150" x2="210" y2="253.92304845413264" stroke="#158466" fill="#158466" stroke-width="30" stroke-linecap="round" opacity="0.6">
</line>
<line x1="150" y1="150" x2="90.00000000000003" y2="253.92304845413264" stroke="#81d41a" fill="#81d41a" stroke-width="30" stroke-linecap="round" opacity="0.6">
</line>
<line x1="150" y1="150" x2="30" y2="150.00000000000003" stroke="#ffbf00" fill="#ffbf00" stroke-width="30" stroke-linecap="round" opacity="0.6">
</line>
<line x1="150" y1="150" x2="89.99999999999994" y2="46.07695154586739" stroke="#ff4000" fill="#ff4000" stroke-width="30" stroke-linecap="round" opacity="0.6">
</line>
</g>
</svg>